# AST/ASF file generated using VICON BodyLanguage
# -----------------------------------------------
:version 1.10
:name VICON
:units
  mass 1.0
  length 0.45
  angle deg
:documentation
   .ast/.asf automatically generated from VICON data using
   VICON BodyBuilder and BodyLanguage model FoxedUp or BRILLIANT.MOD
:root
   order TX TY TZ RX RY RZ
   axis XYZ
   position 0 0 0  
   orientation 0 0 0 
:bonedata
  begin
     id 1 
     name lhipjoint
     direction 0.64773 -0.699417 0.302095 
     length 2.48597 
     axis 0 0 0  XYZ
  end
  begin
     id 2 
     name lfemur
     direction 0.34202 -0.939693 0  
     length 6.71947  
     axis 0 0 20  XYZ
    dof rx ry rz
    limits (-160.0 20.0)
           (-70.0 70.0)
           (-60.0 70.0)
  end
  begin
     id 3 
     name ltibia
     direction 0.34202 -0.939693 0   
     length 8.08777   
     axis 0 0 20   XYZ
    dof rx
    limits (-10.0 170.0)
  end
  begin
     id 4 
     name lfoot
     direction 0.0808503 -0.222134 0.971658   
     length 2.08264   
     axis -90 7.62852e-016 20   XYZ
    dof rx rz
    limits (-45.0 90.0)
           (-70.0 20.0)
  end
  begin
     id 5 
     name ltoes
     direction 1.53502e-011 -4.22007e-011 1   
     length 1.04662   
     axis -90 7.62852e-016 20   XYZ
    dof rx
    limits (-90.0 20.0)
  end
  begin
     id 6 
     name rhipjoint
     direction -0.610924 -0.726792 0.313919   
     length 2.39233  
     axis 0 0 0  XYZ 
  end
  begin
     id 7 
     name rfemur
     direction -0.34202 -0.939693 0   
     length 6.96955   
     axis 0 0 -20   XYZ
    dof rx ry rz
    limits (-160.0 20.0)
           (-70.0 70.0)
           (-70.0 60.0)
  end
  begin
     id 8 
     name rtibia
     direction -0.34202 -0.939693 0   
     length 8.19584   
     axis 0 0 -20   XYZ
    dof rx
    limits (-10.0 170.0)
 end
 begin
     id 9 
     name rfoot
     direction -0.077777 -0.213691 0.9738   
     length 2.07539  
     axis -90 -7.62852e-016 -20   XYZ
    dof rx rz
    limits (-45.0 90.0)
           (-20.0 70.0)
  end
  begin
     id 10 
     name rtoes
     direction -1.53558e-011 -4.22006e-011 1   
     length 1.04381   
     axis -90 -7.62852e-016 -20   XYZ
    dof rx
    limits (-90.0 20.0)
  end
  begin
     id 11 
     name lowerback
     direction -0.00971646 0.996074 0.0879841   
     length 1.67643   
     axis 0 0 0   XYZ
    dof rx ry rz
    limits (-20.0 45.0)
           (-30.0 30.0)
           (-30.0 30.0)
  end
  begin
     id 12 
     name upperback
     direction 0.0127391 0.991676 0.128127   
     length 1.63741   
     axis 0 0 0   XYZ
    dof rx ry rz
    limits (-20.0 45.0)
           (-30.0 30.0)
           (-30.0 30.0)
  end
  begin
     id 13 
     name thorax
     direction 0.0167583 0.996049 0.0872067   
     length 1.65931   
     axis 0 0 0   XYZ
    dof rx ry rz
    limits (-20.0 45.0)
           (-30.0 30.0)
           (-30.0 30.0)
  end
  begin
     id 14 
     name lowerneck
     direction -0.0317829 0.998312 0.0486079   
     length 1.79021   
     axis 0 0 0   XYZ
    dof rx ry rz
    limits (-20.0 45.0)
           (-30.0 30.0)
           (-30.0 30.0)
  end
  begin
     id 15 
     name upperneck
     direction 0.0896851 0.972452 -0.215159   
     length 1.78797   
     axis 0 0 0   XYZ
    dof rx ry rz
    limits (-20.0 45.0)
           (-30.0 30.0)
           (-30.0 30.0)
  end
  begin
     id 16
     name head
     direction 0.0310949 0.996503 -0.0775582  
     length 1.81549  
     axis 0 0 0   XYZ
    dof rx ry rz
    limits (-20.0 45.0)
           (-30.0 30.0)
           (-30.0 30.0)
  end
  begin
     id 17 
     name lclavicle
     direction 0.853638 0.502051 -0.138733  
     length 3.31627  
     axis 0 0 0   XYZ
    dof ry rz
    limits (-20.0 10.0)
           (0.0 20.0)
  end
  begin
     id 18 
     name lhumerus
     direction 1 -4.48962e-011 -1.41788e-018   
     length 5.54893   
     axis 180 -30 -90   XYZ
    dof rx ry rz
    limits (-60.0 90.0)
           (-90.0 90.0)
           (-90.0 90.0)
  end
  begin
     id 19
     name lradius
     direction 1 -4.48962e-011 -4.95754e-027   
     length 3.02898   
     axis 180 -30 -90   XYZ
    dof rx
    limits (-10.0 170.0)
  end
  begin
     id 20
     name lwrist
     direction 1 -4.48952e-011 -1.03764e-026   
     length 1.51449   
     axis 9.09556e-015 90 90   XYZ
    dof ry
    limits (-180.0 0.0)
 end
  begin
     id 21 
     name lhand
     direction 1 -4.4902e-011 -2.07528e-026   
     length 0.640951   
     axis 1.3242e-014 90 90   XYZ
    dof rx rz
    limits (-90.0 90.0)
           (-45.0 45.0)
  end
  begin
     id 22 
     name lfingers
     direction 1 -4.49014e-011 -4.15056e-026   
     length 0.516751   
     axis 2.64841e-014 90 90   XYZ
    dof rx
    limits (0.0 90.0)
  end
  begin
     id 23
     name lthumb
     direction 0.707107 -6.35008e-011 0.707107   
     length 0.741954   
     axis -90 45 2.85299e-015   XYZ
    dof rx rz
    limits (-45.0 45.0)
           (-45.0 45.0)
  end
  begin
     id 24 
     name rclavicle
     direction -0.888531 0.455324 -0.0565039   
     length 3.20126  
     axis 0 0 0   XYZ 
    dof ry rz
    limits (-10.0 20.0)
           (-20.0 0.0)
  end
  begin
     id 25 
     name rhumerus
     direction -1 -4.48946e-011 -8.98298e-028  
     length 5.3519   
     axis 180 30 90   XYZ
    dof rx ry rz
    limits (-90.0 60.0)
           (-90.0 90.0)
           (-90.0 90.0)
  end
  begin
     id 26 
     name rradius
     direction -1 -4.4899e-011 -3.18779e-027   
     length 3.02531   
     axis 180 30 90   XYZ
    dof rx
    limits (-10.0 170.0)
  end
  begin
     id 27 
     name rwrist
     direction -1 -4.4897e-011 -1.03764e-026   
     length 1.51266   
     axis 9.09556e-015 -90 -90   XYZ
    dof ry
    limits (-180.0 0.0)
  end
  begin
     id 28
     name rhand
     direction -1 -4.48941e-011 -2.07528e-026   
     length 0.78389   
     axis 1.3242e-014 -90 -90   XYZ
    dof rx rz
    limits (-90.0 90.0)
           (-45.0 45.0)
  end
  begin
     id 29
     name rfingers
     direction -1 -4.49012e-011 -4.15056e-026   
     length 0.631992   
     axis 2.64841e-014 -90 -90   XYZ
    dof rx
    limits (0.0 90.0)
  end
  begin
     id 30
     name rthumb
     direction -0.707107 -6.3496e-011 0.707107   
     length 0.907418   
     axis -90 -45 -2.85299e-015   XYZ
    dof rx rz
    limits (-45.0 45.0)
           (-45.0 45.0)
  end
:hierarchy
  begin
    root lhipjoint rhipjoint lowerback
    lhipjoint lfemur
    lfemur ltibia
    ltibia lfoot
    lfoot ltoes
    rhipjoint rfemur
    rfemur rtibia
    rtibia rfoot
    rfoot rtoes
    lowerback upperback
    upperback thorax
    thorax lowerneck lclavicle rclavicle
    lowerneck upperneck
    upperneck head
    lclavicle lhumerus
    lhumerus lradius
    lradius lwrist
    lwrist lhand lthumb
    lhand lfingers
    rclavicle rhumerus
    rhumerus rradius
    rradius rwrist
    rwrist rhand rthumb
    rhand rfingers
  end

#!OML:ASF E:\Style3\Style3.ASF
:FULLY-SPECIFIED
:DEGREES
54
root -0.425321 17.8036 0.716754 -167.659 60.2425 -180.028
lowerback -4.55733 3.4958 0.524059
upperback -11.8245 5.73853 0.713566
thorax -10.0426 3.22343 0.158544
lowerneck -12.4801 2.02737 -4.11034
upperneck 19.7394 2.29602 8.56445
head 7.99128 1.81363 3.81102
rclavicle -1.12313e-014 4.37326e-015
rhumerus 22.0502 40.2447 -54.738
rradius 132.258
rwrist -21.4129
rhand 25.0197 14.0994
rfingers 7.12502
rthumb 49.1792 -7.54388
lclavicle -1.12313e-014 4.37326e-015
lhumerus -6.18161 -17.411 63.4352
lradius 133.078
lwrist 3.60655
lhand 6.90956 28.9821
lfingers 7.12502
lthumb 32.1896 56.1498
rfemur -9.68967 3.01872 21.935
rtibia 14.9118
rfoot -21.8229 -32.837
rtoes 1.73972
lfemur -17.2852 -34.1831 -5.79316
ltibia 4.39432
lfoot -1.86798 16.4744
ltoes -26.6986
55
root -0.425883 17.8041 0.711876 -167.709 60.1138 -180.146
lowerback -4.63793 3.49267 0.5006
upperback -11.8912 5.74389 0.672634
thorax -10.0697 3.23135 0.130065
lowerneck -12.2796 1.96857 -3.99353
upperneck 19.7926 2.19282 8.57887
head 7.98153 1.77754 3.78407
rclavicle 4.40308e-014 1.74931e-014
rhumerus 23.1213 37.7039 -55.2171
rradius 132.452
rwrist -21.4841
rhand 22.0269 13.7884
rfingers 7.12502
rthumb 46.4184 -9.12985
lclavicle 4.40308e-014 1.74931e-014
lhumerus -5.87824 -17.858 63.218
lradius 132.399
lwrist 2.51093
lhand 6.98618 28.9959
lfingers 7.12502
lthumb 32.2625 56.1488
rfemur -9.70026 3.05762 21.8642
rtibia 14.8744
rfoot -21.9441 -32.9328
rtoes 1.9596
lfemur -17.3259 -34.3581 -5.77898
ltibia 4.23002
lfoot -1.74046 16.5255
ltoes -27.0401
56
root -0.426777 17.8055 0.705242 -167.715 60.0005 -180.187
lowerback -4.63763 3.38917 0.473978
upperback -11.9274 5.61928 0.766993
thorax -10.1235 3.18042 0.246934
lowerneck -12.2585 2.02177 -4.03314
upperneck 20.0018 2.27053 8.60795
head 8.04042 1.8207 3.81547
rclavicle 7.13637e-014 3.97569e-014
rhumerus 24.4584 35.7314 -55.5369
rradius 132.379
rwrist -20.9019
rhand 18.309 13.3973
rfingers 7.12502
rthumb 42.9567 -10.864
lclavicle 7.13637e-014 3.97569e-014
lhumerus -5.80797 -18.5423 63.006
lradius 131.776
lwrist 1.6469
lhand 7.74831 28.3919
lfingers 7.12502
lthumb 32.9877 55.3947
rfemur -9.65468 3.09421 21.8269
rtibia 14.7756
rfoot -22.1777 -32.9581
rtoes 2.27467
lfemur -17.4162 -34.512 -5.73249
ltibia 4.20534
lfoot -1.83593 16.585
ltoes -26.5003
57
root -0.428344 17.8072 0.696261 -167.602 59.8754 -180.102
lowerback -4.60731 3.15344 0.479629
upperback -11.9265 5.3167 0.958855
thorax -10.1564 3.04181 0.457422
lowerneck -12.504 2.19687 -4.01797
upperneck 20.3694 2.51 8.59877
head 8.19097 1.94474 3.85285
rclavicle -4.02539e-014 -2.78299e-015
rhumerus 26.0937 34.4876 -55.6673
rradius 132.068
rwrist -19.1553
rhand 13.3268 12.7677
rfingers 7.12502
rthumb 38.2744 -12.9563
lclavicle -4.02539e-014 -2.78299e-015
lhumerus -5.96157 -19.3037 62.8569
lradius 131.365
lwrist 0.778948
lhand 9.42915 28.0473
lfingers 7.12502
lthumb 34.5847 54.6993
rfemur -9.58379 3.07505 21.8583
rtibia 14.612
rfoot -22.1826 -33.0282
rtoes 2.53985
lfemur -17.5961 -34.6592 -5.60426
ltibia 4.34297
lfoot -1.96581 16.6508
ltoes -26.0223
58
root -0.428321 17.8079 0.686846 -167.291 59.7034 -179.855
lowerback -4.69624 3.04086 0.63275
upperback -11.9798 5.18851 1.07368
thorax -10.1625 2.97714 0.504038
lowerneck -12.4654 2.23161 -4.04195
upperneck 20.4854 2.56363 8.60111
head 8.21824 1.97165 3.86655
rclavicle -3.04141e-014 -5.56597e-015
rhumerus 27.2974 33.4884 -55.5755
rradius 131.347
rwrist -16.6737
rhand 7.48829 12.3809
rfingers 7.12502
rthumb 32.7403 -14.6737
lclavicle -3.04141e-014 -5.56597e-015
lhumerus -5.96681 -20.6037 63.0632
lradius 131.165
lwrist 0.840453
lhand 12.28 28.2661
lfingers 7.12502
lthumb 37.2855 54.2563
rfemur -9.52679 3.07719 21.9928
rtibia 14.3823
rfoot -22.1557 -33.1656
rtoes 2.64483
lfemur -18.0089 -34.8036 -5.287
ltibia 4.70398
lfoot -2.21909 16.7289
ltoes -25.8589
59
root -0.427502 17.8089 0.677302 -166.929 59.5089 -179.584
lowerback -4.82286 3.21968 0.944629
upperback -12.0764 5.44797 0.969633
thorax -10.1647 3.07949 0.215968
lowerneck -12.2342 1.97332 -4.16815
upperneck 20.348 2.22456 8.65622
head 8.15165 1.80431 3.86322
rclavicle -4.84041e-014 -2.3059e-014
rhumerus 27.8346 31.9619 -55.3589
rradius 130.42
rwrist -14.2177
rhand 2.77463 12.0592
rfingers 7.12502
rthumb 28.2452 -15.8319
lclavicle -4.84041e-014 -2.3059e-014
lhumerus -5.59925 -22.9763 63.3929
lradius 131.078
lwrist 2.19766
lhand 15.3851 28.7905
lfingers 7.12502
lthumb 40.214 53.9516
rfemur -9.4984 3.11211 22.1487
rtibia 14.1472
rfoot -22.1765 -33.3331
rtoes 2.7419
lfemur -18.5506 -34.9477 -4.8945
ltibia 5.16573
lfoot -2.37152 16.77
ltoes -25.9732
60
root -0.430027 17.8095 0.664959 -166.585 59.281 -179.335
lowerback -4.88579 3.39383 1.31358
upperback -12.1655 5.69411 0.809981
thorax -10.1808 3.16416 -0.164823
lowerneck -12.1582 1.72073 -4.18087
upperneck 20.2713 1.86709 8.72502
head 8.13743 1.64086 3.85006
rclavicle -2.0276e-014 2.34566e-014
rhumerus 28.3915 30.3997 -55.1368
rradius 129.319
rwrist -11.7608
rhand -0.34815 11.6781
rfingers 7.12502
rthumb 25.2569 -16.6702
lclavicle -2.0276e-014 2.34566e-014
lhumerus -5.20577 -25.5438 63.5361
lradius 131.137
lwrist 4.58174
lhand 18.1294 29.2693
lfingers 7.12502
lthumb 42.7886 53.5896
rfemur -9.47246 3.08289 22.2804
rtibia 13.8883
rfoot -22.1108 -33.4832
rtoes 2.92115
lfemur -19.1204 -35.1268 -4.50898
ltibia 5.62604
lfoot -2.39628 16.8087
ltoes -26.3323
61
root -0.436387 17.8093 0.652755 -166.242 59.0032 -179.16
lowerback -5.03432 3.41233 1.60068
upperback -12.256 5.73099 0.699946
thorax -10.1593 3.15758 -0.432818
lowerneck -12.0905 1.59841 -4.06199
upperneck 20.2523 1.66653 8.77816
head 8.13459 1.56171 3.82679
rclavicle -4.48259e-014 -1.59028e-014
rhumerus 29.0979 29.3013 -54.9638
rradius 128.013
rwrist -9.21458
rhand -1.92763 11.1084
rfingers 7.12502
rthumb 23.7428 -17.4449
lclavicle -4.48259e-014 -1.59028e-014
lhumerus -4.89181 -27.5876 63.4866
lradius 131.427
lwrist 7.43345
lhand 20.2932 29.8797
lfingers 7.12502
lthumb 44.8081 53.4545
rfemur -9.5435 2.94697 22.3868
rtibia 13.6431
rfoot -21.8806 -33.6719
rtoes 2.59507
lfemur -19.7643 -35.3355 -4.07519
ltibia 5.96416
lfoot -2.50554 16.8635
ltoes -25.8561
62
root -0.438258 17.8083 0.643892 -166.002 58.7706 -179.004
lowerback -5.22129 3.43507 1.76138
upperback -12.2836 5.76294 0.627682
thorax -10.0583 3.16092 -0.584026
lowerneck -11.9658 1.44572 -4.0471
upperneck 20.1919 1.43872 8.86502
head 8.10763 1.46329 3.82725
rclavicle -8.54774e-015 -1.03368e-014
rhumerus 29.6968 28.3886 -54.7483
rradius 126.731
rwrist -6.8822
rhand -1.20126 10.1051
rfingers 7.12502
rthumb 24.4393 -18.356
lclavicle -8.54774e-015 -1.03368e-014
lhumerus -4.44697 -29.2033 63.4197
lradius 131.972
lwrist 10.014
lhand 21.7792 30.8222
lfingers 7.12502
lthumb 46.1888 53.8377
rfemur -9.51403 2.94404 22.5028
rtibia 13.4289
rfoot -21.671 -33.94
rtoes 2.19363
lfemur -20.1498 -35.5351 -3.75991
ltibia 6.15173
lfoot -2.5719 16.9025
ltoes -25.6972
63
root -0.435393 17.8084 0.63805 -165.98 58.5686 -179.022
lowerback -5.29139 3.47123 1.74605
upperback -12.3362 5.81602 0.545234
thorax -10.0695 3.18839 -0.662239
lowerneck -11.8498 1.25833 -4.12282
upperneck 20.1757 1.17166 9.00234
head 8.09868 1.34618 3.8585
rclavicle 1.20861e-013 6.40087e-014
rhumerus 30.0491 27.7522 -54.4213
rradius 125.539
rwrist -4.23556
rhand 0.544202 8.77404
rfingers 7.12502
rthumb 26.1115 -19.4508
lclavicle 1.20861e-013 6.40087e-014
lhumerus -4.01887 -30.5491 63.5932
lradius 132.749
lwrist 11.4605
lhand 22.6211 31.6713
lfingers 7.12502
lthumb 46.9685 54.3514
rfemur -9.39264 3.04116 22.5209
rtibia 13.2303
rfoot -21.8258 -34.1491
rtoes 2.52608
lfemur -20.316 -35.7588 -3.63083
ltibia 6.20514
lfoot -2.53295 16.9834
ltoes -25.9502
64
root -0.431316 17.8094 0.631459 -166.043 58.3788 -179.106
lowerback -5.29475 3.49924 1.6966
upperback -12.4051 5.86029 0.454133
thorax -10.1407 3.2129 -0.737654
lowerneck -11.7779 1.0796 -4.1214
upperneck 20.2264 0.913591 9.07329
head 8.12133 1.2349 3.85838
rclavicle -3.39922e-014 3.18055e-015
rhumerus 30.263 27.7477 -53.7687
rradius 124.306
rwrist -1.05988
rhand 2.02728 7.30053
rfingers 7.12502
rthumb 27.5307 -20.7065
lclavicle -3.39922e-014 3.18055e-015
lhumerus -3.32602 -31.2338 63.7464
lradius 133.57
lwrist 11.8747
lhand 23.2488 32.3927
lfingers 7.12502
lthumb 47.5487 54.8133
rfemur -9.22756 3.09791 22.5039
rtibia 13.0294
rfoot -22.0431 -34.2921
rtoes 2.77091
lfemur -20.3743 -35.9946 -3.58303
ltibia 6.16094
lfoot -2.45483 17.0262
ltoes -26.3912
65
root -0.425001 17.8096 0.624421 -165.987 58.176 -179.077
lowerback -5.40944 3.52683 1.6732
upperback -12.4502 5.89972 0.36828
thorax -10.1173 3.23499 -0.810178
lowerneck -11.7541 0.924823 -4.01387
upperneck 20.3309 0.673581 9.11542
head 8.17076 1.1402 3.83495
rclavicle 2.87244e-014 1.82882e-014
rhumerus 30.3603 28.1813 -52.8423
rradius 122.997
rwrist 1.74925
rhand 3.74294 6.13653
rfingers 7.12502
rthumb 29.1703 -21.5978
lclavicle 2.87244e-014 1.82882e-014
lhumerus -2.42915 -31.1299 63.6529
lradius 134.415
lwrist 11.6204
lhand 23.5855 32.87
lfingers 7.12502
lthumb 47.8594 55.1482
rfemur -9.10622 3.09265 22.5687
rtibia 12.882
rfoot -22.1239 -34.4935
rtoes 2.67301
lfemur -20.3855 -36.2239 -3.46512
ltibia 5.9856
lfoot -2.42097 17.0676
ltoes -26.3728
66
root -0.41956 17.8076 0.619759 -165.956 57.9436 -179.053
lowerback -5.48632 3.53565 1.62962
upperback -12.4819 5.91343 0.303148
thorax -10.1051 3.24604 -0.851359
lowerneck -11.7941 0.781247 -4.03098
upperneck 20.4782 0.455915 9.24238
head 8.2432 1.05717 3.86634
rclavicle -2.68359e-015 -1.80894e-014
rhumerus 30.4116 28.8756 -51.733
rradius 121.729
rwrist 3.99555
rhand 5.69576 5.1082
rfingers 7.12502
rthumb 31.0334 -22.2869
lclavicle -2.68359e-015 -1.80894e-014
lhumerus -1.47957 -30.4324 63.4497
lradius 135.151
lwrist 11.2411
lhand 22.7844 32.9917
lfingers 7.12502
lthumb 47.1196 55.605
rfemur -9.01327 2.96187 22.6488
rtibia 12.7975
rfoot -22.1469 -34.607
rtoes 2.39672
lfemur -20.3439 -36.4863 -3.34985
ltibia 5.71612
lfoot -2.22744 17.1015
ltoes -26.4549
67
root -0.414566 17.808 0.615422 -166.027 57.724 -179.173
lowerback -5.55037 3.50375 1.49457
upperback -12.5476 5.87858 0.245506
thorax -10.15 3.2431 -0.837181
lowerneck -11.7534 0.672526 -4.14065
upperneck 20.5637 0.287105 9.46569
head 8.2756 0.997511 3.94773
rclavicle -9.74045e-015 -2.44505e-014
rhumerus 30.3597 29.9144 -50.581
rradius 120.728
rwrist 5.44133
rhand 7.89433 4.14231
rfingers 7.12502
rthumb 33.1266 -22.8311
lclavicle -9.74045e-015 -2.44505e-014
lhumerus -0.495835 -29.1532 63.1773
lradius 135.753
lwrist 10.8764
lhand 21.6583 32.9015
lfingers 7.12502
lthumb 46.0766 55.9641
rfemur -8.98216 2.84299 22.6241
rtibia 12.7752
rfoot -22.3088 -34.6344
rtoes 2.74039
lfemur -20.274 -36.7569 -3.32189
ltibia 5.36834
lfoot -2.02576 17.156
ltoes -26.3889
68
root -0.408149 17.8087 0.611465 -166.225 57.5109 -179.44
lowerback -5.63318 3.5054 1.21519
upperback -12.626 5.88667 0.134446
thorax -10.2054 3.27299 -0.801567
lowerneck -11.6208 0.513608 -4.16842
upperneck 20.6023 0.0400307 9.66479
head 8.28279 0.903658 3.99628
rclavicle -1.21756e-014 -1.35174e-014
rhumerus 29.9997 31.1063 -49.4602
rradius 120.083
rwrist 5.95846
rhand 10.2059 3.43906
rfingers 7.12502
rthumb 35.3216 -23.0413
lclavicle -1.21756e-014 -1.35174e-014
lhumerus 0.526011 -27.5827 62.8668
lradius 136.076
lwrist 10.515
lhand 20.4737 32.4702
lfingers 7.12502
lthumb 44.9761 55.9792
rfemur -8.96888 2.73426 22.5149
rtibia 12.8093
rfoot -22.4272 -34.7353
rtoes 3.11969
lfemur -20.1368 -37.0504 -3.4044
ltibia 4.95247
lfoot -1.72989 17.183
ltoes -26.821
